<?xml version="1.0" encoding="UTF-8" standalone="no"?>
<!-- Created with Inkscape (http://www.inkscape.org/) -->

<svg
   xmlns:dc="http://purl.org/dc/elements/1.1/"
   xmlns:cc="http://creativecommons.org/ns#"
   xmlns:rdf="http://www.w3.org/1999/02/22-rdf-syntax-ns#"
   xmlns:svg="http://www.w3.org/2000/svg"
   xmlns="http://www.w3.org/2000/svg"
   xmlns:sodipodi="http://sodipodi.sourceforge.net/DTD/sodipodi-0.dtd"
   xmlns:inkscape="http://www.inkscape.org/namespaces/inkscape"
   width="64"
   height="64"
   viewBox="0 0 63.999999 63.999999"
   id="svg2"
   version="1.1"
   inkscape:version="0.91 r13725"
   sodipodi:docname="favicon.svg"
   inkscape:export-filename="/home/kkopec/icon-64.png"
   inkscape:export-xdpi="89.670334"
   inkscape:export-ydpi="89.670334">
  <defs
     id="defs4" />
  <sodipodi:namedview
     id="base"
     pagecolor="#ffffff"
     bordercolor="#666666"
     borderopacity="1.0"
     inkscape:pageopacity="0.0"
     inkscape:pageshadow="2"
     inkscape:zoom="6.0656504"
     inkscape:cx="39.251375"
     inkscape:cy="15.574716"
     inkscape:document-units="px"
     inkscape:current-layer="layer1"
     showgrid="false"
     units="px"
     inkscape:snap-nodes="false"
     inkscape:snap-others="false"
     inkscape:window-width="1920"
     inkscape:window-height="1135"
     inkscape:window-x="1280"
     inkscape:window-y="0"
     inkscape:window-maximized="1">
    <inkscape:grid
       type="xygrid"
       id="grid4149" />
  </sodipodi:namedview>
  <metadata
     id="metadata7">
    <rdf:RDF>
      <cc:Work
         rdf:about="">
        <dc:format>image/svg+xml</dc:format>
        <dc:type
           rdf:resource="http://purl.org/dc/dcmitype/StillImage" />
        <dc:title />
      </cc:Work>
    </rdf:RDF>
  </metadata>
  <g
     inkscape:label="Layer 1"
     inkscape:groupmode="layer"
     id="layer1"
     transform="translate(0,-988.3622)">
    <rect
       ry="8"
       rx="8"
       y="-1050.4799"
       x="1.8823529"
       height="60.235294"
       width="60.235294"
       id="rect4178"
       style="opacity:1;fill:#c8c4b7;fill-opacity:1;stroke:none;stroke-width:4;stroke-linejoin:bevel;stroke-miterlimit:4;stroke-dasharray:none;stroke-dashoffset:0;stroke-opacity:1"
       transform="scale(1,-1)" />
    <path
       style="opacity:0.5;fill:#ffffff;fill-rule:evenodd;stroke:none;stroke-width:1px;stroke-linecap:butt;stroke-linejoin:miter;stroke-opacity:1"
       d="M 59.779297,1048.1415 4.2207031,992.58293 c 1.446,-1.446 3.4461094,-2.33789 5.6621094,-2.33789 l 44.2343755,0 c 4.432,0 8,3.568 8,8 l 0,44.23436 c 0,2.216 -0.891891,4.2161 -2.337891,5.6621 z"
       id="path4179"
       inkscape:connector-curvature="0" />
    <rect
       style="opacity:1;fill:#4c9ed9;fill-opacity:1;stroke:none;stroke-width:3.80871773;stroke-linejoin:bevel;stroke-miterlimit:4;stroke-dasharray:none;stroke-dashoffset:0;stroke-opacity:1"
       id="rect4155"
       width="48"
       height="16"
       x="8"
       y="-1044.3623"
       rx="8.5333338"
       ry="8.5333338"
       transform="scale(1,-1)" />
    <rect
       y="-1012.3622"
       x="8"
       height="16"
       width="48"
       id="rect4157"
       style="opacity:1;fill:#4c9ed9;fill-opacity:1;stroke:none;stroke-width:3.80871773;stroke-linejoin:bevel;stroke-miterlimit:4;stroke-dasharray:none;stroke-dashoffset:0;stroke-opacity:1"
       rx="8.5333338"
       ry="8.5333338"
       transform="scale(1,-1)" />
    <rect
       style="opacity:1;fill:#4c9ed9;fill-opacity:1;stroke:none;stroke-width:3.80871773;stroke-linejoin:bevel;stroke-miterlimit:4;stroke-dasharray:none;stroke-dashoffset:0;stroke-opacity:1"
       id="rect4159"
       width="48"
       height="16"
       x="-1044.3623"
       y="-24"
       transform="matrix(0,-1,-1,0,0,0)"
       rx="8.5333338"
       ry="8.5333338" />
    <ellipse
       style="opacity:1;fill:#ffffff;fill-opacity:1;stroke:none;stroke-width:4;stroke-linejoin:bevel;stroke-miterlimit:4;stroke-dasharray:none;stroke-dashoffset:0;stroke-opacity:1"
       id="path4161"
       cx="44"
       cy="-1008.3624"
       rx="4"
       ry="3"
       transform="scale(1,-1)" />
    <ellipse
       ry="3"
       rx="4"
       cy="-1000.3622"
       cx="44"
       id="ellipse4163"
       style="opacity:1;fill:#ffffff;fill-opacity:1;stroke:none;stroke-width:4;stroke-linejoin:bevel;stroke-miterlimit:4;stroke-dasharray:none;stroke-dashoffset:0;stroke-opacity:1"
       transform="scale(1,-1)" />
    <rect
       style="opacity:1;fill:#000000;fill-opacity:1;stroke:none;stroke-width:4;stroke-linejoin:bevel;stroke-miterlimit:4;stroke-dasharray:none;stroke-dashoffset:0;stroke-opacity:1"
       id="rect4165"
       width="4"
       height="4"
       x="43"
       y="-1010.3624"
       rx="2"
       ry="2"
       transform="scale(1,-1)" />
    <rect
       y="-1002.3621"
       x="43"
       height="4"
       width="4"
       id="rect4172"
       style="opacity:1;fill:#000000;fill-opacity:1;stroke:none;stroke-width:4;stroke-linejoin:bevel;stroke-miterlimit:4;stroke-dasharray:none;stroke-dashoffset:0;stroke-opacity:1"
       rx="2"
       ry="2"
       transform="scale(1,-1)" />
    <rect
       style="opacity:1;fill:none;fill-opacity:1;stroke:#2b2200;stroke-width:4;stroke-linejoin:bevel;stroke-miterlimit:4;stroke-dasharray:none;stroke-dashoffset:0;stroke-opacity:1"
       id="rect4200"
       width="60.235294"
       height="60.235294"
       x="1.8823529"
       y="-1050.4799"
       rx="8"
       ry="8"
       transform="scale(1,-1)" />
    <path
       style="opacity:0.25;fill:#000000;fill-rule:evenodd;stroke:none;stroke-width:1px;stroke-linecap:butt;stroke-linejoin:miter;stroke-opacity:1"
       d="m 16,1044.3622 c -2.1198,0 -4.036214,-0.877 -5.464844,-2.3027 -0.04028,-0.037 -0.07771,-0.077 -0.117187,-0.1152 -0.03802,-0.04 -0.07796,-0.077 -0.115235,-0.1172 C 8.8770217,1040.3984 8,1038.482 8,1036.3622 c 0,-0.085 0.010887,-0.1675 0.013672,-0.2519 C 8.0108134,1036.0161 8,1035.924 8,1035.829 l 0,-30.9336 c 0,-0.095 0.010813,-0.187 0.013672,-0.2812 C 8.0108868,1004.5298 8,1004.4473 8,1004.3622 c 0,-2.1198 0.8770217,-4.0362 2.302734,-5.46481 0.03727,-0.0403 0.07722,-0.0777 0.115235,-0.11719 L 24,1012.3622 l 0,16 16,0 13.582031,13.5821 c -1.548188,1.4908 -3.710243,2.4179 -6.115234,2.4179 l -30.933594,0 c -0.09498,0 -0.187038,-0.011 -0.28125,-0.014 -0.08443,0 -0.166866,0.014 -0.251953,0.014 z"
       id="path4177"
       inkscape:connector-curvature="0" />
  </g>
</svg>
